<?xml version="1.0" encoding="UTF-8"?><svg xmlns="http://www.w3.org/2000/svg" xmlns:xlink="http://www.w3.org/1999/xlink" height="345.8" preserveAspectRatio="xMidYMid meet" version="1.0" viewBox="117.5 323.2 1348.5 345.8" width="1348.5" zoomAndPan="magnify"><defs><clipPath id="a"><path d="M 0 0 L 1583.570312 0 L 1583.570312 992.128906 L 0 992.128906 Z M 0 0"/></clipPath></defs><g><g clip-path="url(#a)"/><g id="change1_1"><path d="M 1466.058594 344.1875 C 1240.320312 389.257812 1015.191406 420.089844 789.871094 420.261719 C 567.34375 420.429688 343.425781 390.628906 117.511719 346.140625 L 117.511719 535.503906 C 345.964844 581.554688 572.320312 612.621094 797.089844 612.40625 C 1020.039062 612.195312 1242.820312 581.417969 1466.058594 536.417969 L 1466.058594 344.1875" fill="#40130d" fill-rule="evenodd"/></g><g id="change2_1"><path d="M 1466.058594 348.339844 C 1240.320312 393.410156 1015.191406 424.242188 789.871094 424.414062 C 567.34375 424.582031 343.425781 394.78125 117.511719 350.292969 L 117.511719 539.65625 C 345.964844 585.707031 572.320312 616.773438 797.089844 616.558594 C 1020.039062 616.347656 1242.820312 585.570312 1466.058594 540.570312 L 1466.058594 348.339844" fill="#591e16" fill-rule="evenodd"/></g><g id="change1_2"><path d="M 971.859375 413.769531 C 911.199219 417.941406 850.539062 420.214844 789.871094 420.261719 C 739.976562 420.300781 690.015625 418.824219 639.972656 416.023438 L 639.972656 607.683594 C 655.492188 608.609375 671 609.398438 686.503906 610.0625 L 686.503906 435.863281 C 686.503906 428.304688 692.722656 422.085938 700.285156 422.085938 L 911.605469 422.085938 C 919.167969 422.085938 925.386719 428.304688 925.386719 435.863281 L 925.386719 609.023438 C 940.898438 608.234375 956.40625 607.3125 971.917969 606.261719 L 971.917969 415.847656 C 971.917969 415.152344 971.898438 414.460938 971.859375 413.769531" fill="#40130d" fill-rule="evenodd"/></g><g id="change3_1"><path d="M 971.917969 417.921875 C 946.949219 419.636719 921.980469 421.03125 897.011719 422.085938 L 911.605469 422.085938 C 919.167969 422.085938 925.386719 428.304688 925.386719 435.863281 L 925.386719 613.175781 C 940.898438 612.386719 956.40625 611.464844 971.917969 610.414062 Z M 696.0625 422.753906 C 677.375 422.089844 658.679688 421.222656 639.972656 420.175781 L 639.972656 611.835938 C 655.492188 612.761719 671 613.554688 686.503906 614.214844 L 686.503906 435.863281 C 686.503906 429.773438 690.539062 424.554688 696.0625 422.753906" fill="#491712" fill-rule="evenodd"/></g><g id="change4_1"><path d="M 528.894531 407.695312 C 505.746094 405.53125 482.578125 403.113281 459.394531 400.453125 L 442.773438 589.367188 C 465.941406 592.238281 489.089844 594.871094 512.21875 597.25 L 528.894531 407.695312" fill="#300e09" fill-rule="evenodd"/></g><g id="change3_2"><path d="M 528.535156 411.8125 C 505.382812 409.648438 482.21875 407.226562 459.03125 404.566406 L 442.414062 593.476562 C 465.578125 596.347656 488.726562 598.984375 511.855469 601.363281 L 528.535156 411.8125" fill="#491712" fill-rule="evenodd"/></g><g id="change4_2"><path d="M 271.628906 374.078125 C 248.617188 370.292969 225.585938 366.324219 202.535156 362.175781 L 186.113281 548.875 C 209.144531 553.203125 232.160156 557.367188 255.152344 561.34375 L 271.628906 374.078125" fill="#300e09" fill-rule="evenodd"/></g><g id="change3_3"><path d="M 271.269531 378.171875 C 248.257812 374.386719 225.226562 370.414062 202.175781 366.265625 L 185.753906 552.960938 C 208.785156 557.292969 231.800781 561.457031 254.792969 565.433594 L 271.269531 378.171875" fill="#491712" fill-rule="evenodd"/></g><g id="change4_3"><path d="M 1098.398438 402.417969 C 1075.21875 404.964844 1052.050781 407.261719 1028.871094 409.300781 L 1045.679688 600.339844 C 1068.839844 598.1875 1092.011719 595.773438 1115.179688 593.113281 L 1098.398438 402.417969" fill="#300e09" fill-rule="evenodd"/></g><g id="change3_4"><path d="M 1098.761719 406.53125 C 1075.589844 409.078125 1052.410156 411.382812 1029.230469 413.421875 L 1046.039062 604.457031 C 1069.210938 602.304688 1092.371094 599.886719 1115.539062 597.226562 L 1098.761719 406.53125" fill="#491712" fill-rule="evenodd"/></g><g id="change4_4"><path d="M 1355.339844 365.085938 C 1332.300781 369.167969 1309.269531 373.078125 1286.238281 376.789062 L 1302.929688 566.542969 C 1325.949219 562.714844 1348.980469 558.695312 1372.011719 554.496094 L 1355.339844 365.085938" fill="#300e09" fill-rule="evenodd"/></g><g id="change3_5"><path d="M 1355.699219 369.175781 C 1332.660156 373.257812 1309.628906 377.171875 1286.601562 380.886719 L 1303.289062 570.636719 C 1326.308594 566.804688 1349.339844 562.78125 1372.371094 558.582031 L 1355.699219 369.175781" fill="#491712" fill-rule="evenodd"/></g><g id="change4_5"><path d="M 917.742188 488.757812 C 929.625 488.757812 939.257812 498.390625 939.257812 510.277344 C 939.257812 522.160156 929.625 531.792969 917.742188 531.792969 C 905.859375 531.792969 896.226562 522.160156 896.226562 510.277344 C 896.226562 498.390625 905.859375 488.757812 917.742188 488.757812" fill="#300e09" fill-rule="evenodd"/></g><g id="change4_6"><path d="M 800.992188 489.269531 C 812.875 489.269531 822.507812 498.902344 822.507812 510.785156 C 822.507812 522.671875 812.875 532.304688 800.992188 532.304688 C 789.109375 532.304688 779.476562 522.671875 779.476562 510.785156 C 779.476562 498.902344 789.109375 489.269531 800.992188 489.269531" fill="#300e09" fill-rule="evenodd"/></g><g id="change4_7"><path d="M 1188.988281 458.078125 C 1200.871094 458.078125 1210.5 467.714844 1210.5 479.597656 C 1210.5 491.480469 1200.871094 501.113281 1188.988281 501.113281 C 1177.101562 501.113281 1167.46875 491.480469 1167.46875 479.597656 C 1167.46875 467.714844 1177.101562 458.078125 1188.988281 458.078125" fill="#300e09" fill-rule="evenodd"/></g><g id="change4_8"><path d="M 1368.21875 431.953125 C 1380.109375 431.953125 1389.738281 441.589844 1389.738281 453.472656 C 1389.738281 465.355469 1380.109375 474.988281 1368.21875 474.988281 C 1356.339844 474.988281 1346.710938 465.355469 1346.710938 453.472656 C 1346.710938 441.589844 1356.339844 431.953125 1368.21875 431.953125" fill="#300e09" fill-rule="evenodd"/></g><g id="change1_3"><path d="M 917.191406 492.285156 C 929.074219 492.285156 938.707031 501.917969 938.707031 513.800781 C 938.707031 525.683594 929.074219 535.316406 917.191406 535.316406 C 905.308594 535.316406 895.675781 525.683594 895.675781 513.800781 C 895.675781 501.917969 905.308594 492.285156 917.191406 492.285156" fill="#40130d" fill-rule="evenodd"/></g><g id="change1_4"><path d="M 800.441406 492.796875 C 812.324219 492.796875 821.960938 502.429688 821.960938 514.3125 C 821.960938 526.195312 812.324219 535.828125 800.441406 535.828125 C 788.558594 535.828125 778.925781 526.195312 778.925781 514.3125 C 778.925781 502.429688 788.558594 492.796875 800.441406 492.796875" fill="#40130d" fill-rule="evenodd"/></g><g id="change1_5"><path d="M 1188.441406 461.605469 C 1200.320312 461.605469 1209.949219 471.238281 1209.949219 483.121094 C 1209.949219 495.007812 1200.320312 504.640625 1188.441406 504.640625 C 1176.550781 504.640625 1166.921875 495.007812 1166.921875 483.121094 C 1166.921875 471.238281 1176.550781 461.605469 1188.441406 461.605469" fill="#40130d" fill-rule="evenodd"/></g><g id="change1_6"><path d="M 1367.671875 435.480469 C 1379.558594 435.480469 1389.191406 445.113281 1389.191406 456.996094 C 1389.191406 468.882812 1379.558594 478.515625 1367.671875 478.515625 C 1355.789062 478.515625 1346.148438 468.882812 1346.148438 456.996094 C 1346.148438 445.113281 1355.789062 435.480469 1367.671875 435.480469" fill="#40130d" fill-rule="evenodd"/></g><g id="change5_1"><path d="M 926.257812 370.628906 C 946.785156 370.628906 963.546875 387.390625 963.546875 407.914062 L 963.546875 631.664062 C 963.546875 652.191406 946.785156 668.949219 926.257812 668.949219 L 668.886719 668.949219 C 648.359375 668.949219 631.601562 652.191406 631.601562 631.664062 L 631.601562 407.914062 C 631.601562 387.390625 648.359375 370.628906 668.886719 370.628906 Z M 903.234375 414.152344 L 691.910156 414.152344 C 684.347656 414.152344 678.128906 420.371094 678.128906 427.933594 L 678.128906 611.644531 C 678.128906 619.207031 684.347656 625.425781 691.910156 625.425781 L 903.234375 625.425781 C 910.796875 625.425781 917.015625 619.207031 917.015625 611.644531 L 917.015625 427.933594 C 917.015625 420.371094 910.796875 414.152344 903.234375 414.152344" fill="#cea608" fill-rule="evenodd"/></g><g id="change6_1"><path d="M 922.636719 374.832031 L 665.261719 374.832031 C 649.839844 374.832031 637.222656 387.449219 637.222656 402.875 L 637.222656 626.625 C 637.222656 642.046875 649.839844 654.664062 665.261719 654.664062 L 922.636719 654.664062 C 938.0625 654.664062 950.679688 642.046875 950.679688 626.625 L 950.679688 402.875 C 950.679688 387.449219 938.0625 374.832031 922.636719 374.832031 Z M 899.613281 399.867188 C 912.277344 399.867188 922.636719 410.226562 922.636719 422.890625 L 922.636719 606.605469 C 922.636719 619.269531 912.277344 629.628906 899.613281 629.628906 L 688.289062 629.628906 C 675.625 629.628906 665.261719 619.269531 665.261719 606.605469 L 665.261719 422.890625 C 665.261719 410.226562 675.625 399.867188 688.289062 399.867188 L 899.613281 399.867188" fill="#ffcb00" fill-rule="evenodd"/></g><g id="change5_2"><path d="M 793.277344 499.421875 L 697.746094 499.421875 C 689.457031 499.421875 682.679688 506.203125 682.679688 514.488281 L 682.679688 514.492188 C 682.679688 522.777344 689.457031 529.558594 697.746094 529.558594 L 793.277344 529.558594 C 801.5625 529.558594 808.34375 522.777344 808.34375 514.492188 L 808.34375 514.488281 C 808.34375 506.203125 801.5625 499.421875 793.277344 499.421875" fill="#cea608" fill-rule="evenodd"/></g><g id="change6_2"><path d="M 785.441406 501.207031 L 700.46875 501.207031 C 693.097656 501.207031 687.066406 506.636719 687.066406 513.269531 L 687.066406 513.273438 C 687.066406 519.90625 693.097656 525.335938 700.46875 525.335938 L 785.441406 525.335938 C 792.8125 525.335938 798.84375 519.90625 798.84375 513.273438 L 798.84375 513.269531 C 798.84375 506.636719 792.8125 501.207031 785.441406 501.207031" fill="#ffcb00" fill-rule="evenodd"/></g><g id="change7_1"><path d="M 760.859375 502.089844 L 702.796875 502.089844 C 697.761719 502.089844 693.640625 504.519531 693.640625 507.488281 C 693.640625 510.457031 697.761719 512.886719 702.796875 512.886719 L 760.859375 512.886719 C 765.894531 512.886719 770.015625 510.457031 770.015625 507.488281 C 770.015625 504.519531 765.894531 502.089844 760.859375 502.089844" fill="#fff" fill-rule="evenodd"/></g><g id="change1_7"><path d="M 1071.441406 480.355469 C 1083.320312 480.355469 1092.949219 489.988281 1092.949219 501.871094 C 1092.949219 513.753906 1083.320312 523.386719 1071.441406 523.386719 C 1059.550781 523.386719 1049.921875 513.753906 1049.921875 501.871094 C 1049.921875 489.988281 1059.550781 480.355469 1071.441406 480.355469" fill="#40130d" fill-rule="evenodd"/></g><g id="change8_1"><path d="M 526.847656 364.242188 L 457.246094 358.117188 L 432.753906 636.515625 L 502.351562 642.636719 L 526.847656 364.242188" fill="#ba181d" fill-rule="evenodd"/></g><g id="change8_2"><path d="M 269.695312 329.308594 L 200.09375 323.183594 L 175.601562 601.578125 L 245.203125 607.703125 L 269.695312 329.308594" fill="#ba181d" fill-rule="evenodd"/></g><g id="change8_3"><path d="M 1018.878906 364.242188 L 1088.480469 358.117188 L 1112.96875 636.515625 L 1043.371094 642.636719 L 1018.878906 364.242188" fill="#ba181d" fill-rule="evenodd"/></g><g id="change8_4"><path d="M 1276.03125 329.308594 L 1345.628906 323.183594 L 1370.121094 601.578125 L 1300.519531 607.703125 L 1276.03125 329.308594" fill="#ba181d" fill-rule="evenodd"/></g><g id="change9_1"><path d="M 1288.710938 337.207031 C 1287.628906 336.320312 1285.710938 336.636719 1285.320312 338.382812 C 1285.28125 338.578125 1285.261719 338.78125 1285.28125 338.984375 L 1286.011719 347.277344 C 1286.230469 349.625 1289.589844 349.882812 1290.128906 347.515625 C 1290.171875 347.320312 1290.179688 347.113281 1290.160156 346.914062 L 1289.589844 340.488281 C 1289.691406 340.523438 1289.789062 340.554688 1289.898438 340.578125 C 1290.101562 340.617188 1290.300781 340.632812 1290.5 340.613281 L 1298.800781 339.882812 C 1301.140625 339.664062 1301.398438 336.304688 1299.03125 335.769531 C 1298.839844 335.730469 1298.628906 335.714844 1298.429688 335.734375 L 1290.140625 336.464844 C 1289.511719 336.523438 1289.03125 336.808594 1288.710938 337.207031 Z M 1032.980469 371.398438 C 1032.359375 371.457031 1031.878906 371.742188 1031.558594 372.140625 C 1030.480469 371.253906 1028.558594 371.570312 1028.160156 373.316406 C 1028.121094 373.511719 1028.109375 373.71875 1028.128906 373.914062 L 1028.859375 382.210938 C 1029.078125 384.558594 1032.441406 384.816406 1032.96875 382.445312 C 1033.011719 382.253906 1033.03125 382.046875 1033.011719 381.847656 L 1032.441406 375.421875 C 1032.539062 375.460938 1032.640625 375.488281 1032.75 375.515625 C 1032.941406 375.554688 1033.148438 375.566406 1033.351562 375.546875 L 1041.648438 374.816406 C 1043.988281 374.597656 1044.25 371.238281 1041.878906 370.703125 C 1041.691406 370.664062 1041.480469 370.648438 1041.28125 370.667969 Z M 1053.730469 369.574219 C 1051.378906 369.792969 1051.121094 373.152344 1053.488281 373.6875 C 1053.691406 373.726562 1053.890625 373.742188 1054.089844 373.722656 L 1062.390625 372.992188 C 1064.730469 372.773438 1064.988281 369.414062 1062.621094 368.878906 C 1062.429688 368.839844 1062.21875 368.824219 1062.019531 368.84375 Z M 1074.460938 367.75 C 1072.121094 367.96875 1071.859375 371.328125 1074.230469 371.863281 C 1074.421875 371.902344 1074.628906 371.917969 1074.828125 371.898438 L 1077.089844 371.699219 L 1077.261719 373.582031 C 1077.480469 375.929688 1080.839844 376.1875 1081.371094 373.816406 C 1081.410156 373.621094 1081.429688 373.417969 1081.410156 373.21875 L 1081.058594 369.261719 C 1080.941406 367.957031 1079.851562 367.300781 1078.808594 367.375 L 1078.800781 367.367188 Z M 1082.5 385.664062 C 1082.28125 383.316406 1078.921875 383.058594 1078.390625 385.429688 C 1078.351562 385.621094 1078.339844 385.828125 1078.359375 386.027344 L 1079.078125 394.324219 C 1079.308594 396.671875 1082.660156 396.929688 1083.199219 394.558594 C 1083.238281 394.363281 1083.25 394.160156 1083.230469 393.960938 Z M 1084.328125 406.402344 C 1084.109375 404.058594 1080.75 403.796875 1080.210938 406.167969 C 1080.171875 406.363281 1080.160156 406.566406 1080.179688 406.769531 L 1080.910156 415.0625 C 1081.128906 417.410156 1084.488281 417.667969 1085.03125 415.300781 C 1085.058594 415.105469 1085.078125 414.898438 1085.058594 414.699219 Z M 1086.148438 427.144531 C 1085.929688 424.796875 1082.570312 424.539062 1082.039062 426.910156 C 1082 427.105469 1081.988281 427.308594 1082.011719 427.507812 L 1082.738281 435.804688 C 1082.960938 438.148438 1086.308594 438.410156 1086.851562 436.039062 C 1086.890625 435.84375 1086.898438 435.640625 1086.878906 435.441406 Z M 1087.980469 447.882812 C 1087.761719 445.539062 1084.398438 445.277344 1083.859375 447.648438 C 1083.820312 447.84375 1083.808594 448.046875 1083.828125 448.246094 L 1084.558594 456.542969 C 1084.78125 458.890625 1088.140625 459.148438 1088.671875 456.777344 C 1088.710938 456.585938 1088.730469 456.378906 1088.710938 456.179688 Z M 1089.800781 468.625 C 1089.578125 466.277344 1086.21875 466.019531 1085.691406 468.390625 C 1085.648438 468.585938 1085.640625 468.789062 1085.648438 468.988281 L 1086.378906 477.285156 C 1086.601562 479.632812 1089.960938 479.890625 1090.5 477.519531 C 1090.539062 477.324219 1090.550781 477.121094 1090.53125 476.921875 Z M 1091.628906 489.363281 C 1091.410156 487.019531 1088.050781 486.757812 1087.511719 489.128906 C 1087.46875 489.324219 1087.460938 489.527344 1087.480469 489.730469 L 1088.210938 498.023438 C 1088.429688 500.371094 1091.789062 500.628906 1092.320312 498.261719 C 1092.359375 498.066406 1092.378906 497.859375 1092.359375 497.660156 Z M 1093.449219 510.105469 C 1093.230469 507.757812 1089.871094 507.496094 1089.339844 509.867188 C 1089.300781 510.0625 1089.289062 510.269531 1089.300781 510.46875 L 1090.03125 518.765625 C 1090.25 521.109375 1093.609375 521.371094 1094.148438 519 C 1094.191406 518.804688 1094.199219 518.601562 1094.179688 518.398438 Z M 1095.28125 530.84375 C 1095.058594 528.496094 1091.699219 528.238281 1091.160156 530.609375 C 1091.121094 530.804688 1091.109375 531.007812 1091.128906 531.207031 L 1091.859375 539.503906 C 1092.078125 541.851562 1095.441406 542.109375 1095.96875 539.738281 C 1096.011719 539.542969 1096.03125 539.339844 1096.011719 539.140625 Z M 1097.101562 551.582031 C 1096.878906 549.238281 1093.519531 548.976562 1092.988281 551.347656 C 1092.949219 551.542969 1092.941406 551.746094 1092.949219 551.949219 L 1093.679688 560.242188 C 1093.898438 562.589844 1097.261719 562.851562 1097.800781 560.480469 C 1097.839844 560.285156 1097.851562 560.078125 1097.828125 559.878906 Z M 1098.929688 572.324219 C 1098.710938 569.976562 1095.351562 569.71875 1094.808594 572.089844 C 1094.769531 572.28125 1094.761719 572.488281 1094.78125 572.6875 L 1095.511719 580.984375 C 1095.730469 583.328125 1099.089844 583.589844 1099.621094 581.21875 C 1099.660156 581.023438 1099.671875 580.820312 1099.660156 580.617188 Z M 1100.75 593.0625 C 1100.53125 590.71875 1097.171875 590.457031 1096.640625 592.828125 C 1096.601562 593.023438 1096.578125 593.226562 1096.601562 593.429688 L 1097.328125 601.722656 C 1097.550781 604.070312 1100.910156 604.328125 1101.449219 601.960938 C 1101.488281 601.765625 1101.5 601.558594 1101.480469 601.359375 Z M 1102.570312 613.804688 C 1102.351562 611.457031 1098.988281 611.195312 1098.460938 613.566406 C 1098.421875 613.761719 1098.410156 613.96875 1098.429688 614.167969 L 1099.160156 622.464844 C 1099.378906 624.808594 1102.738281 625.070312 1103.269531 622.699219 C 1103.308594 622.503906 1103.320312 622.296875 1103.300781 622.097656 Z M 1094.128906 629.773438 C 1096.46875 629.554688 1096.730469 626.195312 1094.359375 625.660156 C 1094.171875 625.617188 1093.960938 625.605469 1093.761719 625.625 L 1085.460938 626.355469 C 1083.121094 626.574219 1082.859375 629.933594 1085.230469 630.46875 C 1085.421875 630.507812 1085.628906 630.523438 1085.828125 630.503906 Z M 1073.390625 631.597656 C 1075.730469 631.378906 1075.988281 628.019531 1073.621094 627.484375 C 1073.429688 627.445312 1073.21875 627.429688 1073.019531 627.449219 L 1064.71875 628.179688 C 1062.378906 628.398438 1062.121094 631.757812 1064.488281 632.292969 C 1064.679688 632.332031 1064.890625 632.347656 1065.089844 632.328125 Z M 1050.761719 631.09375 C 1050.980469 633.4375 1054.328125 633.699219 1054.871094 631.328125 C 1054.910156 631.132812 1054.921875 630.929688 1054.898438 630.726562 L 1054.171875 622.433594 C 1053.949219 620.085938 1050.589844 619.824219 1050.058594 622.195312 C 1050.019531 622.390625 1050.011719 622.597656 1050.03125 622.796875 Z M 1048.929688 610.351562 C 1049.148438 612.699219 1052.511719 612.957031 1053.039062 610.585938 C 1053.078125 610.390625 1053.101562 610.1875 1053.078125 609.988281 L 1052.351562 601.691406 C 1052.128906 599.34375 1048.769531 599.085938 1048.230469 601.457031 C 1048.191406 601.652344 1048.179688 601.855469 1048.199219 602.054688 Z M 1047.109375 589.613281 C 1047.320312 591.957031 1050.679688 592.21875 1051.21875 589.847656 C 1051.261719 589.652344 1051.269531 589.445312 1051.25 589.246094 L 1050.519531 580.949219 C 1050.300781 578.605469 1046.941406 578.34375 1046.410156 580.714844 C 1046.371094 580.910156 1046.359375 581.117188 1046.378906 581.316406 Z M 1045.28125 568.871094 C 1045.5 571.21875 1048.859375 571.476562 1049.390625 569.105469 C 1049.429688 568.910156 1049.449219 568.707031 1049.429688 568.507812 L 1048.699219 560.210938 C 1048.480469 557.863281 1045.121094 557.605469 1044.578125 559.976562 C 1044.539062 560.171875 1044.53125 560.375 1044.550781 560.574219 Z M 1043.460938 548.132812 C 1043.679688 550.476562 1047.03125 550.738281 1047.570312 548.367188 C 1047.609375 548.171875 1047.621094 547.964844 1047.601562 547.765625 L 1046.871094 539.46875 C 1046.648438 537.125 1043.289062 536.863281 1042.761719 539.234375 C 1042.71875 539.429688 1042.710938 539.636719 1042.730469 539.835938 Z M 1041.628906 527.390625 C 1041.851562 529.738281 1045.210938 529.996094 1045.738281 527.625 C 1045.78125 527.429688 1045.800781 527.226562 1045.78125 527.027344 L 1045.050781 518.730469 C 1044.828125 516.382812 1041.46875 516.125 1040.929688 518.496094 C 1040.898438 518.691406 1040.878906 518.894531 1040.898438 519.09375 Z M 1039.808594 506.652344 C 1040.03125 508.996094 1043.390625 509.257812 1043.921875 506.886719 C 1043.960938 506.691406 1043.96875 506.484375 1043.949219 506.285156 L 1043.21875 497.992188 C 1043 495.644531 1039.640625 495.386719 1039.109375 497.753906 C 1039.070312 497.949219 1039.058594 498.15625 1039.078125 498.355469 Z M 1037.980469 485.910156 C 1038.199219 488.257812 1041.558594 488.515625 1042.101562 486.144531 C 1042.128906 485.949219 1042.148438 485.746094 1042.128906 485.546875 L 1041.398438 477.25 C 1041.179688 474.90625 1037.820312 474.644531 1037.289062 477.015625 C 1037.25 477.210938 1037.230469 477.414062 1037.25 477.617188 Z M 1036.160156 465.171875 C 1036.378906 467.515625 1039.738281 467.777344 1040.269531 465.40625 C 1040.308594 465.210938 1040.320312 465.007812 1040.300781 464.808594 L 1039.570312 456.511719 C 1039.359375 454.164062 1035.988281 453.90625 1035.460938 456.277344 C 1035.421875 456.472656 1035.410156 456.675781 1035.429688 456.875 Z M 1034.328125 444.433594 C 1034.550781 446.777344 1037.910156 447.035156 1038.449219 444.667969 C 1038.488281 444.472656 1038.5 444.265625 1038.480469 444.066406 L 1037.75 435.769531 C 1037.53125 433.425781 1034.171875 433.164062 1033.640625 435.535156 C 1033.601562 435.730469 1033.578125 435.9375 1033.601562 436.136719 Z M 1032.511719 423.691406 C 1032.730469 426.039062 1036.089844 426.296875 1036.621094 423.925781 C 1036.660156 423.730469 1036.671875 423.527344 1036.660156 423.328125 L 1035.929688 415.03125 C 1035.710938 412.683594 1032.351562 412.425781 1031.808594 414.796875 C 1031.769531 414.992188 1031.761719 415.195312 1031.78125 415.394531 Z M 1030.679688 402.953125 C 1030.898438 405.296875 1034.261719 405.558594 1034.800781 403.1875 C 1034.839844 402.992188 1034.851562 402.785156 1034.828125 402.585938 L 1034.101562 394.292969 C 1033.878906 391.945312 1030.519531 391.6875 1029.988281 394.058594 C 1029.949219 394.25 1029.941406 394.457031 1029.949219 394.65625 Z M 260.183594 341.945312 C 260.238281 341.371094 260.046875 340.824219 259.6875 340.410156 C 259.910156 340.226562 260.09375 339.996094 260.234375 339.730469 C 260.890625 338.414062 260.007812 336.863281 258.550781 336.726562 L 250.257812 335.996094 C 249.394531 335.914062 248.605469 336.378906 248.210938 337.140625 C 247.550781 338.457031 248.4375 340.007812 249.890625 340.144531 L 256.316406 340.710938 C 256.164062 340.964844 256.066406 341.261719 256.035156 341.582031 L 255.304688 349.878906 C 255.222656 350.738281 255.6875 351.53125 256.449219 351.925781 C 257.765625 352.582031 259.316406 351.699219 259.453125 350.242188 Z M 258.359375 362.6875 C 258.4375 361.824219 257.976562 361.035156 257.214844 360.640625 C 255.898438 359.984375 254.347656 360.867188 254.210938 362.324219 L 253.480469 370.617188 C 253.398438 371.480469 253.863281 372.269531 254.621094 372.664062 C 255.941406 373.324219 257.492188 372.441406 257.628906 370.984375 Z M 256.53125 383.429688 C 256.613281 382.566406 256.148438 381.777344 255.390625 381.382812 C 254.070312 380.722656 252.519531 381.605469 252.382812 383.0625 L 251.652344 391.359375 C 251.574219 392.222656 252.035156 393.011719 252.796875 393.40625 C 254.113281 394.0625 255.664062 393.179688 255.800781 391.722656 Z M 254.707031 404.167969 C 254.789062 403.308594 254.324219 402.515625 253.5625 402.121094 C 252.246094 401.464844 250.695312 402.347656 250.558594 403.804688 L 249.828125 412.101562 C 249.75 412.960938 250.210938 413.75 250.972656 414.144531 C 252.289062 414.804688 253.839844 413.921875 253.976562 412.464844 Z M 252.882812 424.910156 C 252.964844 424.046875 252.5 423.257812 251.738281 422.863281 C 250.421875 422.203125 248.871094 423.085938 248.734375 424.542969 L 248.003906 432.839844 C 247.925781 433.699219 248.386719 434.492188 249.148438 434.886719 C 250.464844 435.542969 252.015625 434.660156 252.152344 433.203125 Z M 251.058594 445.648438 C 251.140625 444.785156 250.675781 443.996094 249.914062 443.601562 C 248.597656 442.945312 247.046875 443.828125 246.910156 445.285156 L 246.179688 453.578125 C 246.097656 454.441406 246.5625 455.230469 247.324219 455.625 C 248.640625 456.285156 250.191406 455.402344 250.328125 453.945312 Z M 249.234375 466.390625 C 249.3125 465.527344 248.851562 464.738281 248.089844 464.34375 C 246.773438 463.683594 245.222656 464.566406 245.085938 466.023438 L 244.355469 474.320312 C 244.273438 475.179688 244.738281 475.972656 245.5 476.367188 C 246.816406 477.023438 248.367188 476.140625 248.503906 474.683594 Z M 247.410156 487.128906 C 247.488281 486.265625 247.027344 485.476562 246.265625 485.082031 C 244.949219 484.425781 243.398438 485.308594 243.261719 486.761719 L 242.53125 495.058594 C 242.449219 495.921875 242.914062 496.710938 243.675781 497.105469 C 244.992188 497.765625 246.542969 496.878906 246.679688 495.425781 Z M 245.585938 507.867188 C 245.664062 507.007812 245.203125 506.21875 244.441406 505.820312 C 243.125 505.164062 241.574219 506.046875 241.4375 507.503906 L 240.707031 515.800781 C 240.625 516.660156 241.089844 517.449219 241.851562 517.84375 C 243.167969 518.503906 244.71875 517.621094 244.855469 516.164062 Z M 243.761719 528.609375 C 243.839844 527.746094 243.378906 526.957031 242.617188 526.5625 C 241.300781 525.902344 239.746094 526.785156 239.613281 528.242188 L 238.882812 536.539062 C 238.800781 537.402344 239.265625 538.191406 240.027344 538.585938 C 241.34375 539.242188 242.894531 538.359375 243.03125 536.902344 Z M 241.9375 549.347656 C 242.015625 548.484375 241.554688 547.695312 240.792969 547.300781 C 239.476562 546.644531 237.925781 547.527344 237.789062 548.984375 L 237.058594 557.277344 C 236.976562 558.140625 237.441406 558.929688 238.203125 559.324219 C 239.519531 559.984375 241.070312 559.101562 241.207031 557.644531 Z M 240.113281 570.085938 C 240.191406 569.226562 239.730469 568.4375 238.96875 568.039062 C 237.652344 567.382812 236.101562 568.265625 235.964844 569.722656 L 235.234375 578.019531 C 235.152344 578.878906 235.617188 579.667969 236.378906 580.0625 C 237.695312 580.722656 239.246094 579.839844 239.382812 578.382812 Z M 238.289062 590.828125 C 238.367188 589.964844 237.90625 589.175781 237.144531 588.78125 C 235.828125 588.121094 234.277344 589.007812 234.140625 590.460938 L 233.816406 594.121094 L 233.328125 594.078125 C 232.46875 594 231.679688 594.460938 231.285156 595.222656 C 230.625 596.539062 231.507812 598.089844 232.964844 598.226562 L 235.527344 598.453125 C 236.386719 598.535156 237.179688 598.070312 237.570312 597.308594 C 237.710938 597.03125 237.78125 596.742188 237.792969 596.460938 Z M 220.519531 597.132812 C 221.382812 597.214844 222.171875 596.75 222.566406 595.988281 C 223.226562 594.671875 222.34375 593.121094 220.886719 592.984375 L 212.589844 592.253906 C 211.726562 592.171875 210.9375 592.636719 210.542969 593.398438 C 209.886719 594.714844 210.769531 596.265625 212.226562 596.402344 Z M 199.78125 595.308594 C 200.644531 595.390625 201.433594 594.925781 201.828125 594.164062 C 202.484375 592.847656 201.601562 591.296875 200.144531 591.160156 L 191.851562 590.429688 C 190.988281 590.351562 190.199219 590.8125 189.804688 591.574219 C 189.144531 592.890625 190.027344 594.441406 191.484375 594.578125 Z M 185.53125 584.199219 C 185.449219 585.0625 185.914062 585.851562 186.675781 586.246094 C 187.992188 586.90625 189.542969 586.023438 189.679688 584.566406 L 190.410156 576.269531 C 190.492188 575.40625 190.027344 574.617188 189.265625 574.222656 C 187.949219 573.566406 186.398438 574.449219 186.261719 575.90625 Z M 187.355469 563.460938 C 187.277344 564.320312 187.738281 565.109375 188.5 565.507812 C 189.816406 566.164062 191.367188 565.28125 191.503906 563.824219 L 192.234375 555.527344 C 192.316406 554.667969 191.851562 553.878906 191.089844 553.484375 C 189.773438 552.824219 188.222656 553.707031 188.085938 555.164062 Z M 189.183594 542.71875 C 189.101562 543.582031 189.5625 544.371094 190.324219 544.765625 C 191.640625 545.425781 193.191406 544.539062 193.328125 543.085938 L 194.058594 534.789062 C 194.140625 533.925781 193.675781 533.136719 192.914062 532.742188 C 191.597656 532.085938 190.046875 532.96875 189.910156 534.425781 Z M 191.007812 521.980469 C 190.925781 522.839844 191.390625 523.632812 192.148438 524.027344 C 193.46875 524.683594 195.019531 523.800781 195.15625 522.34375 L 195.882812 514.046875 C 195.964844 513.1875 195.503906 512.398438 194.742188 512.003906 C 193.425781 511.34375 191.871094 512.226562 191.734375 513.683594 Z M 192.832031 501.238281 C 192.75 502.101562 193.214844 502.890625 193.976562 503.285156 C 195.289062 503.945312 196.84375 503.0625 196.980469 501.605469 L 197.710938 493.308594 C 197.789062 492.445312 197.328125 491.65625 196.566406 491.261719 C 195.25 490.605469 193.699219 491.488281 193.5625 492.945312 Z M 194.65625 480.5 C 194.574219 481.359375 195.039062 482.152344 195.800781 482.546875 C 197.117188 483.203125 198.667969 482.320312 198.804688 480.863281 L 199.535156 472.566406 C 199.613281 471.707031 199.152344 470.917969 198.390625 470.523438 C 197.074219 469.863281 195.523438 470.746094 195.386719 472.203125 Z M 196.480469 459.761719 C 196.398438 460.621094 196.863281 461.410156 197.625 461.804688 C 198.941406 462.464844 200.492188 461.582031 200.628906 460.125 L 201.359375 451.828125 C 201.4375 450.96875 200.976562 450.175781 200.214844 449.78125 C 198.898438 449.125 197.347656 450.007812 197.210938 451.464844 Z M 198.304688 439.019531 C 198.222656 439.882812 198.6875 440.671875 199.449219 441.066406 C 200.765625 441.722656 202.316406 440.839844 202.453125 439.382812 L 203.183594 431.089844 C 203.265625 430.226562 202.800781 429.4375 202.039062 429.042969 C 200.722656 428.382812 199.171875 429.269531 199.035156 430.722656 Z M 200.128906 418.28125 C 200.050781 419.140625 200.511719 419.929688 201.273438 420.324219 C 202.589844 420.984375 204.140625 420.101562 204.277344 418.644531 L 205.007812 410.347656 C 205.089844 409.488281 204.625 408.699219 203.863281 408.304688 C 202.546875 407.644531 200.996094 408.527344 200.859375 409.984375 Z M 201.953125 397.539062 C 201.871094 398.402344 202.335938 399.191406 203.097656 399.585938 C 204.414062 400.242188 205.964844 399.359375 206.101562 397.90625 L 206.832031 389.609375 C 206.914062 388.746094 206.449219 387.957031 205.6875 387.5625 C 204.371094 386.90625 202.820312 387.789062 202.683594 389.242188 Z M 203.777344 376.800781 C 203.699219 377.660156 204.160156 378.449219 204.921875 378.847656 C 206.238281 379.503906 207.789062 378.621094 207.925781 377.164062 L 208.65625 368.867188 C 208.738281 368.007812 208.273438 367.21875 207.511719 366.824219 C 206.195312 366.164062 204.644531 367.046875 204.507812 368.503906 Z M 205.601562 356.0625 C 205.523438 356.921875 205.984375 357.710938 206.746094 358.105469 C 208.0625 358.765625 209.613281 357.882812 209.75 356.425781 L 210.480469 348.128906 C 210.5625 347.269531 210.097656 346.476562 209.335938 346.085938 C 208.019531 345.425781 206.46875 346.308594 206.332031 347.765625 Z M 207.425781 335.320312 C 207.347656 336.183594 207.808594 336.972656 208.570312 337.367188 C 209.523438 337.84375 210.601562 337.511719 211.175781 336.738281 L 216.707031 337.226562 C 217.570312 337.308594 218.359375 336.84375 218.753906 336.082031 C 219.410156 334.765625 218.527344 333.214844 217.070312 333.078125 L 209.769531 332.433594 C 208.910156 332.355469 208.121094 332.816406 207.726562 333.578125 C 207.585938 333.855469 207.515625 334.144531 207.503906 334.429688 Z M 229.515625 334.171875 C 228.65625 334.09375 227.867188 334.554688 227.472656 335.316406 C 226.8125 336.632812 227.695312 338.183594 229.152344 338.320312 L 237.449219 339.050781 C 238.308594 339.132812 239.097656 338.667969 239.492188 337.90625 C 240.152344 336.589844 239.269531 335.039062 237.8125 334.902344 Z M 517.335938 376.878906 C 517.390625 376.304688 517.199219 375.757812 516.839844 375.34375 C 517.0625 375.160156 517.246094 374.929688 517.386719 374.664062 C 518.042969 373.347656 517.160156 371.796875 515.703125 371.660156 L 507.40625 370.929688 C 506.546875 370.851562 505.757812 371.3125 505.363281 372.074219 C 504.703125 373.390625 505.589844 374.941406 507.042969 375.078125 L 513.46875 375.644531 C 513.316406 375.898438 513.21875 376.191406 513.1875 376.515625 L 512.457031 384.8125 C 512.375 385.671875 512.839844 386.464844 513.601562 386.855469 C 514.917969 387.515625 516.46875 386.632812 516.605469 385.175781 Z M 515.507812 397.621094 C 515.589844 396.757812 515.128906 395.96875 514.367188 395.574219 C 513.050781 394.917969 511.496094 395.800781 511.359375 397.257812 L 510.632812 405.550781 C 510.550781 406.414062 511.015625 407.203125 511.773438 407.597656 C 513.089844 408.257812 514.644531 407.371094 514.777344 405.917969 Z M 513.683594 418.363281 C 513.765625 417.5 513.300781 416.710938 512.539062 416.316406 C 511.222656 415.65625 509.671875 416.539062 509.535156 417.996094 L 508.804688 426.292969 C 508.726562 427.152344 509.1875 427.945312 509.949219 428.339844 C 511.265625 428.996094 512.816406 428.113281 512.953125 426.65625 Z M 511.859375 439.101562 C 511.941406 438.238281 511.476562 437.449219 510.714844 437.054688 C 509.398438 436.398438 507.847656 437.28125 507.710938 438.738281 L 506.980469 447.03125 C 506.902344 447.894531 507.363281 448.683594 508.125 449.078125 C 509.441406 449.738281 510.992188 448.855469 511.128906 447.398438 Z M 510.035156 459.84375 C 510.117188 458.980469 509.652344 458.191406 508.890625 457.796875 C 507.574219 457.136719 506.023438 458.019531 505.886719 459.476562 L 505.15625 467.773438 C 505.074219 468.632812 505.539062 469.425781 506.300781 469.820312 C 507.617188 470.476562 509.167969 469.59375 509.304688 468.136719 Z M 508.210938 480.582031 C 508.289062 479.71875 507.828125 478.929688 507.066406 478.535156 C 505.75 477.878906 504.199219 478.761719 504.0625 480.21875 L 503.332031 488.511719 C 503.253906 489.375 503.714844 490.164062 504.476562 490.558594 C 505.792969 491.21875 507.34375 490.335938 507.480469 488.878906 Z M 506.386719 501.320312 C 506.464844 500.460938 506.003906 499.671875 505.242188 499.277344 C 503.925781 498.617188 502.375 499.5 502.238281 500.957031 L 501.507812 509.253906 C 501.425781 510.113281 501.890625 510.902344 502.652344 511.300781 C 503.96875 511.957031 505.519531 511.074219 505.65625 509.617188 Z M 504.5625 522.0625 C 504.640625 521.199219 504.179688 520.410156 503.417969 520.015625 C 502.101562 519.355469 500.550781 520.242188 500.414062 521.695312 L 499.683594 529.992188 C 499.601562 530.855469 500.066406 531.644531 500.828125 532.039062 C 502.144531 532.695312 503.695312 531.8125 503.832031 530.355469 Z M 502.734375 542.800781 C 502.816406 541.941406 502.351562 541.148438 501.59375 540.753906 C 500.277344 540.097656 498.722656 540.980469 498.589844 542.4375 L 497.859375 550.734375 C 497.777344 551.59375 498.242188 552.382812 499.003906 552.777344 C 500.320312 553.4375 501.871094 552.554688 502.007812 551.097656 Z M 500.910156 563.539062 C 500.992188 562.679688 500.527344 561.890625 499.769531 561.496094 C 498.453125 560.835938 496.898438 561.71875 496.765625 563.175781 L 496.035156 571.472656 C 495.953125 572.335938 496.417969 573.121094 497.179688 573.519531 C 498.496094 574.175781 500.046875 573.292969 500.183594 571.835938 Z M 499.089844 584.28125 C 499.167969 583.417969 498.703125 582.628906 497.945312 582.234375 C 496.628906 581.574219 495.074219 582.460938 494.9375 583.914062 L 494.210938 592.210938 C 494.128906 593.074219 494.59375 593.863281 495.355469 594.257812 C 496.671875 594.914062 498.222656 594.03125 498.359375 592.574219 Z M 497.265625 605.019531 C 497.34375 604.160156 496.882812 603.367188 496.121094 602.976562 C 494.804688 602.316406 493.253906 603.199219 493.113281 604.65625 L 492.386719 612.953125 C 492.304688 613.8125 492.769531 614.601562 493.53125 614.996094 C 494.847656 615.65625 496.398438 614.773438 496.535156 613.316406 Z M 495.4375 625.761719 C 495.519531 624.898438 495.054688 624.109375 494.296875 623.714844 C 492.980469 623.054688 491.425781 623.941406 491.289062 625.394531 L 490.96875 629.054688 L 490.480469 629.011719 C 489.621094 628.933594 488.832031 629.394531 488.4375 630.15625 C 487.777344 631.472656 488.660156 633.023438 490.117188 633.160156 L 492.679688 633.386719 C 493.539062 633.46875 494.328125 633.003906 494.722656 632.242188 C 494.863281 631.964844 494.933594 631.675781 494.945312 631.394531 Z M 477.671875 632.066406 C 478.535156 632.148438 479.324219 631.683594 479.71875 630.921875 C 480.378906 629.605469 479.492188 628.054688 478.039062 627.917969 L 469.742188 627.1875 C 468.878906 627.109375 468.089844 627.570312 467.695312 628.332031 C 467.039062 629.648438 467.921875 631.199219 469.378906 631.335938 Z M 456.933594 630.242188 C 457.796875 630.324219 458.585938 629.859375 458.980469 629.097656 C 459.636719 627.78125 458.753906 626.230469 457.296875 626.09375 L 449.003906 625.363281 C 448.140625 625.28125 447.351562 625.746094 446.957031 626.507812 C 446.296875 627.824219 447.179688 629.375 448.636719 629.511719 Z M 442.683594 619.132812 C 442.601562 619.996094 443.066406 620.785156 443.828125 621.179688 C 445.144531 621.839844 446.695312 620.953125 446.832031 619.5 L 447.5625 611.203125 C 447.644531 610.339844 447.179688 609.550781 446.417969 609.15625 C 445.101562 608.5 443.550781 609.382812 443.414062 610.839844 Z M 444.507812 598.394531 C 444.429688 599.253906 444.890625 600.046875 445.652344 600.441406 C 446.96875 601.097656 448.519531 600.214844 448.65625 598.757812 L 449.386719 590.464844 C 449.46875 589.601562 449.003906 588.8125 448.242188 588.417969 C 446.925781 587.757812 445.375 588.640625 445.238281 590.097656 Z M 446.335938 577.652344 C 446.253906 578.515625 446.714844 579.304688 447.476562 579.699219 C 448.796875 580.359375 450.34375 579.476562 450.480469 578.019531 L 451.210938 569.722656 C 451.292969 568.859375 450.828125 568.070312 450.066406 567.675781 C 448.753906 567.019531 447.199219 567.902344 447.0625 569.359375 Z M 448.160156 556.914062 C 448.078125 557.773438 448.539062 558.566406 449.300781 558.960938 C 450.617188 559.617188 452.171875 558.734375 452.308594 557.277344 L 453.035156 548.980469 C 453.117188 548.121094 452.652344 547.332031 451.894531 546.9375 C 450.578125 546.277344 449.023438 547.160156 448.890625 548.617188 Z M 449.984375 536.171875 C 449.902344 537.035156 450.367188 537.824219 451.128906 538.21875 C 452.445312 538.878906 453.996094 537.992188 454.132812 536.539062 L 454.863281 528.242188 C 454.941406 527.382812 454.480469 526.589844 453.71875 526.195312 C 452.402344 525.539062 450.851562 526.421875 450.714844 527.878906 Z M 451.808594 515.433594 C 451.726562 516.292969 452.191406 517.085938 452.953125 517.480469 C 454.269531 518.136719 455.820312 517.253906 455.957031 515.796875 L 456.6875 507.503906 C 456.765625 506.640625 456.304688 505.851562 455.542969 505.457031 C 454.226562 504.796875 452.675781 505.679688 452.539062 507.136719 Z M 453.632812 494.691406 C 453.550781 495.554688 454.015625 496.34375 454.777344 496.738281 C 456.09375 497.398438 457.644531 496.515625 457.78125 495.058594 L 458.511719 486.761719 C 458.589844 485.902344 458.128906 485.109375 457.367188 484.714844 C 456.050781 484.058594 454.5 484.941406 454.363281 486.398438 Z M 455.457031 473.953125 C 455.378906 474.816406 455.839844 475.605469 456.601562 476 C 457.917969 476.65625 459.46875 475.773438 459.605469 474.316406 L 460.335938 466.023438 C 460.414062 465.160156 459.953125 464.371094 459.191406 463.976562 C 457.875 463.316406 456.324219 464.199219 456.1875 465.65625 Z M 457.28125 453.214844 C 457.199219 454.074219 457.664062 454.863281 458.425781 455.261719 C 459.742188 455.917969 461.292969 455.035156 461.429688 453.578125 L 462.160156 445.28125 C 462.238281 444.421875 461.777344 443.632812 461.015625 443.238281 C 459.699219 442.578125 458.148438 443.460938 458.011719 444.917969 Z M 459.105469 432.472656 C 459.023438 433.335938 459.488281 434.125 460.25 434.519531 C 461.566406 435.179688 463.117188 434.296875 463.253906 432.839844 L 463.984375 424.542969 C 464.0625 423.679688 463.601562 422.890625 462.839844 422.496094 C 461.523438 421.839844 459.972656 422.722656 459.835938 424.179688 Z M 460.929688 411.734375 C 460.847656 412.597656 461.3125 413.386719 462.074219 413.78125 C 463.390625 414.4375 464.941406 413.554688 465.078125 412.097656 L 465.808594 403.804688 C 465.890625 402.941406 465.425781 402.152344 464.664062 401.757812 C 463.347656 401.097656 461.796875 401.980469 461.660156 403.4375 Z M 462.753906 390.992188 C 462.675781 391.855469 463.136719 392.644531 463.898438 393.039062 C 465.214844 393.699219 466.765625 392.816406 466.902344 391.359375 L 467.632812 383.0625 C 467.714844 382.203125 467.25 381.410156 466.488281 381.015625 C 465.171875 380.359375 463.621094 381.242188 463.484375 382.699219 Z M 464.578125 370.253906 C 464.496094 371.117188 464.960938 371.90625 465.722656 372.300781 C 466.675781 372.777344 467.753906 372.445312 468.324219 371.671875 L 473.859375 372.160156 C 474.722656 372.242188 475.511719 371.777344 475.90625 371.015625 C 476.5625 369.699219 475.679688 368.148438 474.222656 368.011719 L 466.921875 367.367188 C 466.0625 367.289062 465.273438 367.75 464.878906 368.511719 C 464.738281 368.789062 464.667969 369.078125 464.65625 369.363281 Z M 486.667969 369.105469 C 485.808594 369.027344 485.019531 369.488281 484.621094 370.25 C 483.964844 371.566406 484.847656 373.117188 486.304688 373.253906 L 494.601562 373.984375 C 495.460938 374.066406 496.25 373.601562 496.644531 372.839844 C 497.304688 371.523438 496.421875 369.972656 494.964844 369.835938 Z M 1310.878906 334.640625 C 1308.53125 334.859375 1308.269531 338.21875 1310.640625 338.753906 C 1310.839844 338.792969 1311.039062 338.808594 1311.238281 338.789062 L 1319.539062 338.058594 C 1321.878906 337.839844 1322.140625 334.480469 1319.769531 333.945312 C 1319.578125 333.90625 1319.371094 333.890625 1319.171875 333.910156 Z M 1331.621094 332.816406 C 1329.269531 333.035156 1329.011719 336.394531 1331.378906 336.929688 C 1331.578125 336.96875 1331.78125 336.984375 1331.980469 336.964844 L 1334.25 336.765625 L 1334.410156 338.648438 C 1334.628906 340.996094 1337.988281 341.253906 1338.53125 338.882812 C 1338.570312 338.6875 1338.578125 338.484375 1338.558594 338.285156 L 1338.210938 334.324219 C 1338.089844 333.023438 1337 332.363281 1335.960938 332.441406 L 1335.960938 332.433594 Z M 1339.660156 350.730469 C 1339.441406 348.382812 1336.078125 348.125 1335.539062 350.492188 C 1335.5 350.6875 1335.488281 350.894531 1335.511719 351.09375 L 1336.238281 359.390625 C 1336.460938 361.734375 1339.820312 361.996094 1340.351562 359.625 C 1340.390625 359.429688 1340.398438 359.226562 1340.390625 359.027344 Z M 1341.480469 371.46875 C 1341.261719 369.125 1337.898438 368.863281 1337.371094 371.234375 C 1337.328125 371.429688 1337.308594 371.632812 1337.328125 371.835938 L 1338.058594 380.128906 C 1338.28125 382.476562 1341.640625 382.734375 1342.179688 380.363281 C 1342.21875 380.171875 1342.230469 379.964844 1342.210938 379.765625 Z M 1343.308594 392.210938 C 1343.089844 389.863281 1339.730469 389.605469 1339.191406 391.976562 C 1339.148438 392.171875 1339.140625 392.375 1339.160156 392.574219 L 1339.890625 400.871094 C 1340.109375 403.21875 1343.46875 403.476562 1344 401.105469 C 1344.039062 400.910156 1344.050781 400.707031 1344.039062 400.507812 Z M 1345.128906 412.949219 C 1344.910156 410.605469 1341.550781 410.34375 1341.019531 412.714844 C 1340.980469 412.910156 1340.960938 413.113281 1340.980469 413.316406 L 1341.710938 421.609375 C 1341.929688 423.957031 1345.289062 424.214844 1345.828125 421.847656 C 1345.871094 421.652344 1345.878906 421.445312 1345.859375 421.246094 Z M 1346.960938 433.691406 C 1346.738281 431.34375 1343.378906 431.085938 1342.839844 433.453125 C 1342.800781 433.648438 1342.789062 433.855469 1342.808594 434.054688 L 1343.539062 442.351562 C 1343.761719 444.695312 1347.121094 444.957031 1347.648438 442.585938 C 1347.691406 442.390625 1347.699219 442.1875 1347.691406 441.988281 Z M 1348.78125 454.429688 C 1348.558594 452.085938 1345.199219 451.824219 1344.671875 454.195312 C 1344.628906 454.390625 1344.609375 454.59375 1344.628906 454.796875 L 1345.359375 463.089844 C 1345.578125 465.4375 1348.941406 465.695312 1349.480469 463.324219 C 1349.519531 463.132812 1349.53125 462.925781 1349.511719 462.726562 Z M 1350.601562 475.171875 C 1350.378906 472.824219 1347.03125 472.5625 1346.488281 474.933594 C 1346.449219 475.128906 1346.441406 475.335938 1346.460938 475.535156 L 1347.191406 483.832031 C 1347.410156 486.175781 1350.769531 486.4375 1351.300781 484.066406 C 1351.339844 483.871094 1351.351562 483.664062 1351.328125 483.464844 Z M 1352.429688 495.910156 C 1352.210938 493.5625 1348.851562 493.304688 1348.308594 495.675781 C 1348.28125 495.871094 1348.261719 496.074219 1348.28125 496.273438 L 1349.011719 504.570312 C 1349.230469 506.917969 1352.589844 507.175781 1353.128906 504.804688 C 1353.160156 504.609375 1353.179688 504.40625 1353.160156 504.207031 Z M 1354.25 516.648438 C 1354.03125 514.304688 1350.671875 514.042969 1350.140625 516.414062 C 1350.101562 516.609375 1350.089844 516.8125 1350.109375 517.015625 L 1350.828125 525.308594 C 1351.050781 527.65625 1354.410156 527.914062 1354.949219 525.546875 C 1354.988281 525.351562 1355 525.144531 1354.980469 524.945312 Z M 1356.078125 537.390625 C 1355.859375 535.042969 1352.5 534.785156 1351.960938 537.152344 C 1351.921875 537.347656 1351.910156 537.554688 1351.929688 537.753906 L 1352.660156 546.050781 C 1352.878906 548.394531 1356.238281 548.65625 1356.769531 546.285156 C 1356.808594 546.089844 1356.828125 545.886719 1356.808594 545.683594 Z M 1357.898438 558.128906 C 1357.679688 555.78125 1354.320312 555.523438 1353.789062 557.894531 C 1353.75 558.089844 1353.730469 558.292969 1353.75 558.492188 L 1354.480469 566.789062 C 1354.699219 569.136719 1358.058594 569.394531 1358.601562 567.023438 C 1358.640625 566.828125 1358.648438 566.625 1358.628906 566.425781 Z M 1359.730469 578.867188 C 1359.511719 576.523438 1356.148438 576.261719 1355.609375 578.632812 C 1355.570312 578.828125 1355.558594 579.035156 1355.578125 579.234375 L 1356.308594 587.53125 C 1356.53125 589.875 1359.890625 590.136719 1360.421875 587.765625 C 1360.460938 587.570312 1360.46875 587.363281 1360.460938 587.164062 Z M 1351.28125 594.839844 C 1353.621094 594.621094 1353.878906 591.261719 1351.511719 590.726562 C 1351.320312 590.6875 1351.109375 590.671875 1350.910156 590.691406 L 1342.621094 591.421875 C 1340.269531 591.640625 1340.011719 595 1342.378906 595.535156 C 1342.578125 595.574219 1342.78125 595.589844 1342.980469 595.570312 Z M 1330.539062 596.664062 C 1332.878906 596.445312 1333.140625 593.085938 1330.769531 592.550781 C 1330.578125 592.511719 1330.371094 592.496094 1330.171875 592.515625 L 1321.878906 593.246094 C 1319.53125 593.464844 1319.269531 596.824219 1321.640625 597.359375 C 1321.839844 597.398438 1322.039062 597.410156 1322.238281 597.394531 Z M 1307.910156 596.160156 C 1308.128906 598.503906 1311.488281 598.765625 1312.019531 596.394531 C 1312.058594 596.199219 1312.070312 595.992188 1312.058594 595.792969 L 1311.328125 587.496094 C 1311.109375 585.152344 1307.75 584.890625 1307.210938 587.261719 C 1307.171875 587.457031 1307.160156 587.664062 1307.179688 587.863281 Z M 1306.078125 575.417969 C 1306.300781 577.765625 1309.660156 578.023438 1310.199219 575.652344 C 1310.238281 575.457031 1310.25 575.253906 1310.230469 575.054688 L 1309.5 566.757812 C 1309.28125 564.410156 1305.921875 564.152344 1305.390625 566.523438 C 1305.351562 566.71875 1305.328125 566.921875 1305.351562 567.121094 Z M 1304.261719 554.679688 C 1304.480469 557.023438 1307.839844 557.285156 1308.371094 554.914062 C 1308.410156 554.71875 1308.421875 554.511719 1308.410156 554.3125 L 1307.679688 546.015625 C 1307.460938 543.671875 1304.101562 543.410156 1303.558594 545.78125 C 1303.519531 545.976562 1303.511719 546.183594 1303.53125 546.382812 Z M 1302.429688 533.9375 C 1302.648438 536.285156 1306.011719 536.542969 1306.550781 534.171875 C 1306.578125 533.976562 1306.601562 533.773438 1306.578125 533.574219 L 1305.851562 525.277344 C 1305.628906 522.929688 1302.269531 522.671875 1301.738281 525.042969 C 1301.699219 525.238281 1301.679688 525.441406 1301.699219 525.640625 Z M 1300.609375 513.199219 C 1300.828125 515.542969 1304.191406 515.804688 1304.71875 513.433594 C 1304.761719 513.238281 1304.769531 513.03125 1304.761719 512.832031 L 1304.03125 504.535156 C 1303.808594 502.191406 1300.449219 501.929688 1299.910156 504.300781 C 1299.871094 504.496094 1299.859375 504.699219 1299.878906 504.902344 Z M 1298.78125 492.457031 C 1299 494.804688 1302.359375 495.0625 1302.898438 492.691406 C 1302.941406 492.496094 1302.949219 492.292969 1302.929688 492.09375 L 1302.199219 483.796875 C 1301.980469 481.449219 1298.621094 481.191406 1298.089844 483.5625 C 1298.050781 483.757812 1298.03125 483.960938 1298.050781 484.160156 Z M 1296.960938 471.71875 C 1297.179688 474.0625 1300.539062 474.324219 1301.070312 471.953125 C 1301.109375 471.757812 1301.121094 471.554688 1301.109375 471.351562 L 1300.378906 463.058594 C 1300.160156 460.710938 1296.800781 460.449219 1296.261719 462.820312 C 1296.21875 463.015625 1296.210938 463.222656 1296.230469 463.421875 Z M 1295.128906 450.976562 C 1295.351562 453.324219 1298.710938 453.585938 1299.25 451.214844 C 1299.289062 451.015625 1299.300781 450.8125 1299.28125 450.613281 L 1298.550781 442.316406 C 1298.328125 439.972656 1294.96875 439.710938 1294.441406 442.082031 C 1294.398438 442.277344 1294.378906 442.480469 1294.398438 442.683594 Z M 1293.308594 430.238281 C 1293.53125 432.585938 1296.890625 432.84375 1297.421875 430.472656 C 1297.460938 430.277344 1297.480469 430.074219 1297.460938 429.871094 L 1296.730469 421.578125 C 1296.511719 419.230469 1293.148438 418.972656 1292.609375 421.34375 C 1292.570312 421.535156 1292.558594 421.742188 1292.578125 421.941406 Z M 1291.480469 409.496094 C 1291.699219 411.84375 1295.058594 412.101562 1295.601562 409.734375 C 1295.640625 409.539062 1295.648438 409.332031 1295.628906 409.132812 L 1294.898438 400.835938 C 1294.679688 398.492188 1291.320312 398.230469 1290.789062 400.601562 C 1290.75 400.796875 1290.738281 401.003906 1290.75 401.203125 Z M 1289.660156 388.757812 C 1289.878906 391.105469 1293.238281 391.363281 1293.769531 388.992188 C 1293.808594 388.796875 1293.828125 388.59375 1293.808594 388.394531 L 1293.078125 380.097656 C 1292.859375 377.753906 1289.5 377.492188 1288.960938 379.863281 C 1288.921875 380.058594 1288.910156 380.261719 1288.929688 380.460938 Z M 1287.839844 368.019531 C 1288.058594 370.363281 1291.421875 370.625 1291.949219 368.253906 C 1291.988281 368.058594 1292 367.855469 1291.980469 367.652344 L 1291.25 359.359375 C 1291.03125 357.011719 1287.671875 356.753906 1287.140625 359.121094 C 1287.101562 359.316406 1287.089844 359.523438 1287.109375 359.722656 L 1287.839844 368.019531" fill="#980000" fill-rule="evenodd"/></g></g></svg>