<?xml version="1.0" encoding="UTF-8" standalone="no"?><svg xmlns="http://www.w3.org/2000/svg" xmlns:xlink="http://www.w3.org/1999/xlink" fill="#000000" height="477.8" preserveAspectRatio="xMidYMid meet" version="1" viewBox="271.3 171.3 457.5 477.8" width="457.5" zoomAndPan="magnify"><g id="change1_1"><path d="M 394.746094 479.78125 C 372.113281 443.378906 342.113281 403.195312 292.605469 404.210938 C 292.605469 404.210938 305.628906 387.636719 330.488281 388.820312 C 330.488281 388.820312 345.757812 350.65625 379.660156 351.292969 C 384.824219 351.390625 389.695312 352.128906 394.4375 353.5 C 414.433594 355.183594 419.929688 339.863281 419.929688 339.863281 C 421.429688 350.9375 418.195312 358.535156 414.5625 363.386719 C 428 372.550781 442.195312 386.890625 460.84375 406.3125 C 588.332031 384.773438 609.421875 260.570312 609.421875 260.570312 C 627.402344 346.703125 592.871094 421.761719 565.402344 464.941406 C 601.464844 470.230469 647.792969 467.046875 707.394531 448.6875 C 707.394531 448.6875 500 649.046875 394.746094 479.78125 Z M 557.929688 252.28125 C 565.054688 286.429688 563.929688 318.832031 558.265625 348.199219 C 533.425781 375.464844 501.484375 392.820312 462.925781 399.933594 C 458.367188 395.195312 454.050781 390.753906 449.910156 386.59375 C 541.488281 349.09375 557.929688 252.28125 557.929688 252.28125 Z M 500 171.261719 C 373.671875 171.261719 271.261719 273.671875 271.261719 400 C 271.261719 526.328125 373.671875 628.738281 500 628.738281 C 626.328125 628.738281 728.738281 526.328125 728.738281 400 C 728.738281 273.671875 626.328125 171.261719 500 171.261719" fill="#0003ff"/></g></svg>