<?xml version="1.0" encoding="UTF-8"?><svg xmlns="http://www.w3.org/2000/svg" xmlns:xlink="http://www.w3.org/1999/xlink" height="210.4" preserveAspectRatio="xMidYMid meet" version="1.0" viewBox="-5.3 -5.2 210.4 210.4" width="210.4" zoomAndPan="magnify"><g id="change1_1"><path d="M99.915,100.005l31.757,31.757l47.968-47.968c17.85-17.85,18.143-46.736,0.679-64.201" fill="#24dd19"/></g><g id="change2_1"><path d="M180.318,19.593C162.846,2.12,133.976,2.43,116.126,20.28L68.158,68.248l31.757,31.757" fill="#2fff29"/></g><g id="change3_1"><path d="M99.915,100.005L68.158,68.248L20.19,116.215c-17.825,17.825-18.151,46.712-0.679,64.184" fill="#fff"/></g><g id="change4_1"><path d="M19.511,180.399c17.465,17.465,46.367,17.155,64.192-0.67l47.968-47.968l-31.757-31.757" fill="#d6d6d6"/></g><g id="change5_1"><path d="M185.03,14.881c-20.106-20.106-53.131-19.798-73.616,0.687l-52.68,52.68l0,0l-43.255,43.255 c-20.481,20.481-20.785,53.502-0.679,73.608c20.111,20.111,53.136,19.811,73.617-0.67l43.255-43.255l0,0l52.68-52.68 C204.837,68.02,205.141,34.991,185.03,14.881z M78.993,175.017c-15.285,15.285-39.855,15.585-54.77,0.67 c-14.91-14.91-14.606-39.476,0.679-54.761l43.255-43.255l27.045,27.045l27.045,27.045L78.993,175.017z M174.928,79.082 l-43.255,43.255l-27.045-27.045L77.582,68.247l43.255-43.255c15.29-15.29,39.858-15.598,54.769-0.687 C190.521,39.219,190.217,63.793,174.928,79.082z"/></g></svg>