<?xml version="1.0" encoding="UTF-8"?><svg xmlns="http://www.w3.org/2000/svg" xmlns:xlink="http://www.w3.org/1999/xlink" clip-rule="evenodd" fill-rule="evenodd" height="45.3" image-rendering="optimizeQuality" preserveAspectRatio="xMidYMid meet" shape-rendering="geometricPrecision" text-rendering="geometricPrecision" version="1.0" viewBox="10.2 64.0 153.1 45.3" width="153.1" zoomAndPan="magnify"><g><g><g id="change1_1"><path d="M90.4793 66.5909l0.0032 27.4431 8.9259 -5.9426 0 -15.7051c-0.6562,-0.4684 -1.3615,-1.0232 -2.0974,-1.6034 -2.125,-1.6738 -4.6914,-3.6937 -6.8317,-4.192zm-1.1742 30.8189c-0.1904,0 -0.3805,-0.0457 -0.5553,-0.139 -0.383,-0.2052 -0.6225,-0.6038 -0.6225,-1.038l-0.0061 -30.9268c0,-0.6244 0.4875,-1.1402 1.1131,-1.1754 3.2076,-0.178 6.5681,2.4659 9.5332,4.8021 0.9017,0.7087 1.7509,1.3786 2.4714,1.8569 0.3282,0.2182 0.5244,0.5863 0.5244,0.9804l0.0001 16.9516c0,0.394 -0.1964,0.7622 -0.5245,0.9806l-11.2807 7.5103c-0.1964,0.131 -0.4234,0.1974 -0.6531,0.1973z" fill="inherit"/><path d="M89.302 83.51c-0.1717,0 -0.3467,-0.0377 -0.5123,-0.1177l-20.3696 -9.8449c-0.414,-0.1997 -0.6715,-0.6217 -0.6654,-1.0811 0.0093,-0.4594 0.2821,-0.8718 0.7052,-1.0566l11.0511 -4.8598c0.3284,-0.1442 0.7052,-0.1313 1.0211,0.0349l9.3157 4.887c0.5763,0.3022 0.7969,1.0138 0.4965,1.5897 -0.3034,0.5756 -1.0149,0.7981 -1.5914,0.4958l-8.8125 -4.6237 -8.1962 3.6044 18.0698 8.7338c0.5857,0.2829 0.8307,0.9871 0.5487,1.5728 -0.2021,0.4204 -0.6224,0.6654 -1.0607,0.6654z" fill="inherit"/><path d="M105.854 75.4095l19.0846 8.4678 35.9437 -5.4359 0 -10.4458c-6.1266,1.3599 -30.6757,6.5062 -55.0283,7.4139zm41.7141 33.8636c-0.1625,0 -0.3251,-0.0338 -0.4814,-0.1029l-46.9853 -21.0464c-0.5917,-0.266 -0.8586,-0.9624 -0.5918,-1.556 0.2668,-0.5938 0.9628,-0.8592 1.5546,-0.5931l46.3231 20.7501 8.2025 -6.6708 -31.2735 -13.8768c-0.0124,-0.0052 -0.0247,-0.0102 -0.037,-0.0158l-24.1717 -10.7257c-0.5057,-0.2249 -0.7881,-0.7717 -0.6747,-1.3142 0.1107,-0.5427 0.5857,-0.9337 1.1407,-0.9395 29.3021,-0.3086 60.8972,-7.7314 61.213,-7.8066 0.3527,-0.0825 0.7206,-0.0015 1.0027,0.222 0.2824,0.2232 0.4477,0.5637 0.4477,0.9236l0.0003 12.9332c0,0.5823 -0.4266,1.0775 -1.0029,1.1646l-33.2943 5.0343 29.3573 13.0268c0.374,0.1663 0.6345,0.515 0.6897,0.9207 0.0554,0.4057 -0.1074,0.8107 -0.4232,1.0692l-10.2507 8.3394c-0.2145,0.1738 -0.4783,0.2641 -0.7451,0.2639z" fill="inherit"/><path d="M12.5149 78.4438l35.9437 5.4352 19.0815 -8.4674c-24.3525,-0.908 -48.8987,-6.0542 -55.0252,-7.4142l0 10.4464zm13.3111 30.8313c-0.2639,0 -0.5276,-0.0898 -0.7422,-0.2637l-10.2507 -8.3396c-0.3187,-0.2584 -0.4784,-0.6631 -0.4232,-1.0691 0.0524,-0.406 0.3127,-0.7543 0.6868,-0.9205l29.3604 -13.027 -33.2975 -5.0347c-0.5764,-0.0873 -0.9997,-0.5818 -0.9997,-1.1639l0.0003 -12.9337c0,-0.3601 0.1623,-0.7001 0.4443,-0.9236 0.2853,-0.223 0.6532,-0.3044 1.0027,-0.222 0.3162,0.0749 31.9204,7.4984 61.2161,7.8069 0.5553,0.0055 1.0272,0.3968 1.1407,0.9392 0.1104,0.5424 -0.1686,1.0897 -0.6745,1.3145l-55.4821 24.6181 8.1994 6.6701 59.8576 -26.8969c0.592,-0.267 1.2878,-0.0018 1.5547,0.5915 0.2667,0.5928 0.003,1.29 -0.5919,1.5564l-60.5169 27.1945c-0.1562,0.0697 -0.3189,0.1038 -0.4843,0.1035z" fill="inherit"/><path d="M79.9863 95.0816c-0.1624,0 -0.325,-0.033 -0.4753,-0.0996l-11.4127 -5.0138c-0.5979,-0.2611 -0.8679,-0.9556 -0.6073,-1.5511 0.2637,-0.5955 0.9567,-0.8663 1.5516,-0.6045l10.8978 4.7857 8.8156 -4.6242c0.5767,-0.3016 1.2878,-0.0796 1.5913,0.4964 0.3007,0.5757 0.0798,1.2875 -0.4967,1.5895l-9.3182 4.8871c-0.1718,0.0893 -0.3591,0.1346 -0.5461,0.1345z" fill="inherit"/></g><g id="change2_1"><path d="M48.4586 83.879l19.0815 -8.4674c-24.3525,-0.908 -48.8987,-6.0542 -55.0252,-7.4142l0 10.4464 35.9437 5.4352z" fill="#e6d96a"/></g><g id="change3_1"><path d="M72.7901 75.6595l-54.9827 24.3965 8.1994 6.6701 42.0442 -18.8925c0.0241,-0.0118 0.0486,-0.0228 0.0734,-0.033l15.4356 -6.9359 -10.7699 -5.2052z" fill="#fff176"/></g><g id="change2_2"><path d="M73.3406 73.3096l13.5096 6.5297c0.0049,0.0023 0.0098,0.0047 0.0147,0.0071l1.2593 0.6087 -0.0014 -7.2284 -8.1824 -4.2931 -8.1962 3.6044 1.5604 0.7542c0.0121,0.0056 0.0241,0.0114 0.036,0.0174z" fill="#e6d96a"/></g><g id="change2_3"><path d="M86.3268 82.202L71.4695 88.8784 79.9404 92.5983 88.1257 88.3047 88.1247 83.0709z" fill="#e6d96a"/></g><g id="change3_2"><path d="M90.4793 66.5909l0.0032 27.4431 8.9259 -5.9426 0 -0.9683c-0.0031,-0.0492 -0.0032,-0.0988 0,-0.1485l0 -12.5824c-0.0005,-0.0203 -0.0005,-0.0407 0,-0.0611l0 -1.9448c-0.6562,-0.4684 -1.3615,-1.0232 -2.0974,-1.6034 -2.125,-1.6738 -4.6914,-3.6937 -6.8317,-4.192z" fill="#fff176"/></g><g id="change2_4"><path d="M105.854 75.4095l19.0846 8.4678 35.9437 -5.4359 0 -10.4458c-6.1266,1.3599 -30.6757,6.5062 -55.0283,7.4139z" fill="#e6d96a"/></g><g id="change3_3"><path d="M124.279 86.1614L101.763 76.1704 101.763 86.2879 147.387 106.725 155.59 100.054 124.316 86.1772z" fill="#fff176"/></g></g></g><path d="M0 0H173.397V173.397H0z" fill="none"/></svg>